# xmcd
#
# Track frame offsets: 
#        150
#        11637
#        23686
#        35698
#        44388
#        56864
#        67181
#        80393
#        93678
#        106215
#        120080
#        132574
#        144832
#        160052
#        175612
#        188443
#        201157
#        211946
#
# Disc length: 3002 seconds
#
# Revision: 1
# Processed by: cddbd v1.5.2PL0 Copyright (c) Steve Scherf et al.
# Submitted via: ExactAudioCopy v1.1
#
DISCID=f00bb812
DTITLE=The Platters 五黑寶合唱團 - 美聲情歌傳奇
DYEAR=1900
DGENRE=Vocal
TTITLE0=Smoke Gets In Your Eyes／煙霧迷濛你的眼
TTITLE1=Heaven On Earth／人間天堂
TTITLE2=With This Ring／戒指
TTITLE3=Sweet Sweet Lovin’／甜蜜蜜
TTITLE4=I Love You A 1000 Times／愛妳千次
TTITLE5=One In A Million／百萬富翁
TTITLE6=Crying In The Chapel／哭泣的教堂
TTITLE7=I’ll Be Home／回家
TTITLE8=Twilight Time／黎明時分
TTITLE9=Harbor Lights／港灣之燈
TTITLE10=Washed Ashore／擱淺
TTITLE11=The Magic Touch／魔法接觸
TTITLE12=The Great Pretender／大偽善者
TTITLE13=My Prayer／我的祈禱
TTITLE14=If I Had You如果擁有妳
TTITLE15=Pledging My Love／至死不渝
TTITLE16=Red Sails In The Sunset／夕陽中的紅色小船
TTITLE17=I’m Sorry／很抱歉
EXTD=
EXTT0=
EXTT1=
EXTT2=
EXTT3=
EXTT4=
EXTT5=
EXTT6=
EXTT7=
EXTT8=
EXTT9=
EXTT10=
EXTT11=
EXTT12=
EXTT13=
EXTT14=
EXTT15=
EXTT16=
EXTT17=
PLAYORDER=
